<svg width="100" height="100" viewBox="0 0 100 100" fill="none" xmlns="http://www.w3.org/2000/svg">
<path d="M73.1222 29.1902C73.1229 29.1894 73.1227 29.1882 73.1217 29.1877C68.8955 27.2485 64.3669 25.8205 59.6294 25.0036C59.5425 24.9875 59.4556 25.0261 59.4138 25.1065V25.1065C58.3061 27.0772 56.1737 28.2986 53.9194 28.1294C51.403 27.9405 48.8961 27.9387 46.4048 28.1241C44.1472 28.2921 41.983 27.0774 40.869 25.1065V25.1065C40.824 25.0293 40.7372 24.9907 40.6535 25.0036C35.9184 25.8207 31.386 27.2489 27.1591 29.1886C27.1237 29.2047 27.0916 29.2304 27.0691 29.2658C18.4738 42.1072 16.119 54.6334 17.2739 67.0052C17.2803 67.0663 17.3125 67.1242 17.3607 67.1596C23.0319 71.3253 28.5263 73.8537 33.9176 75.5297C34.0045 75.5554 34.0945 75.5232 34.1492 75.4524C35.423 73.7121 36.5618 71.8754 37.5365 69.9421C37.5944 69.8295 37.5365 69.6944 37.4206 69.6494C35.616 68.9642 33.9015 68.131 32.248 67.1853C32.1161 67.1081 32.1065 66.9215 32.2256 66.8315C32.573 66.5709 32.9204 66.3007 33.2517 66.0273C33.3128 65.9758 33.3964 65.9661 33.4672 65.9983C44.3174 70.9522 56.0652 70.9522 66.7867 65.9983C66.8575 65.9629 66.9411 65.9758 67.0022 66.0241C67.3335 66.2975 67.6809 66.5709 68.0316 66.8315C68.1506 66.9215 68.1442 67.1081 68.0123 67.1853C66.3621 68.1503 64.6443 68.9674 62.8365 69.6494C62.7175 69.6944 62.666 69.8295 62.7239 69.9453C63.7211 71.8754 64.8566 73.7089 66.1079 75.4524C66.1594 75.5264 66.2527 75.5586 66.3395 75.5328C71.7566 73.8569 77.2509 71.3286 82.9221 67.1628C82.9703 67.1274 83.0025 67.0695 83.0089 67.0116C84.3922 52.7097 80.6929 40.2865 73.2074 29.2723C73.1885 29.2375 73.1602 29.209 73.1227 29.1928C73.1217 29.1923 73.1214 29.191 73.1222 29.1902V29.1902ZM39.1512 59.4714C35.883 59.4714 33.1938 56.4734 33.1938 52.7902C33.1938 49.1069 35.8347 46.1089 39.1512 46.1089C42.4678 46.1089 45.1634 49.1359 45.1087 52.7902C45.1087 56.4734 42.4678 59.4714 39.1512 59.4714ZM61.183 59.4714C57.9148 59.4714 55.2256 56.4734 55.2256 52.7902C55.2256 49.1069 57.8665 46.1089 61.183 46.1089C64.4995 46.1089 67.1952 49.1359 67.1405 52.7902C67.1405 56.4734 64.5285 59.4714 61.183 59.4714Z" fill="white"/>
</svg>
