<svg width="22" height="24" viewBox="0 0 22 24" fill="none" xmlns="http://www.w3.org/2000/svg">
<g id="&#240;&#159;&#166;&#134; icon &#34;book saved&#34;">
<g id="Group">
<path id="Vector" d="M21 3.24025V17.1208C21 18.2248 20.22 19.2597 19.26 19.3977L18.93 19.4438C16.75 19.7773 13.39 21.0537 11.47 22.2727C11.21 22.4452 10.78 22.4452 10.51 22.2727L10.47 22.2498C8.54997 21.0423 5.20003 19.7773 3.03003 19.4438L2.73999 19.3977C1.77999 19.2597 1 18.2248 1 17.1208V3.22874C1 1.86024 1.96997 0.825249 3.15997 0.940249C5.25997 1.13575 8.43997 2.35478 10.22 3.63128L10.47 3.80374C10.76 4.01075 11.24 4.01075 11.53 3.80374L11.7 3.67726C12.33 3.22876 13.13 2.78025 14 2.37775V7.06977L16 5.54025L18 7.06977V1.06681C18.27 1.00931 18.53 0.97476 18.77 0.95176H18.83C20.02 0.83676 21 1.86025 21 3.24025Z" stroke="white" stroke-width="1.7" stroke-linecap="round" stroke-linejoin="round"/>
<path id="Vector_2" d="M11 4.18323V21.4332" stroke="white" stroke-width="1.7" stroke-linecap="round" stroke-linejoin="round"/>
<path id="Vector_3" d="M18 1.06677V7.06974L16 5.54021L14 7.06974V2.37771C15.31 1.77972 16.77 1.29677 18 1.06677Z" stroke="white" stroke-width="1.7" stroke-linecap="round" stroke-linejoin="round"/>
</g>
</g>
</svg>
