<svg width="24" height="23" viewBox="0 0 24 23" fill="none" xmlns="http://www.w3.org/2000/svg">
<g id="HomeIcon">
<g id="Group">
<path id="Vector" d="M18.194 22.9749H5.80605C2.87488 22.9749 0.5 20.5893 0.5 17.6582V9.73121C0.5 8.27629 1.3986 6.44699 2.55395 5.54838L8.32 1.05536C10.053 -0.292541 12.8237 -0.356727 14.6209 0.905594L21.2321 5.53769C22.5051 6.42559 23.5 8.32978 23.5 9.88097V17.6689C23.5 20.5893 21.1251 22.9749 18.194 22.9749ZM9.30419 2.31769L3.53814 6.81071C2.7786 7.40978 2.10465 8.76838 2.10465 9.73121V17.6582C2.10465 19.7014 3.76279 21.3703 5.80605 21.3703H18.194C20.2372 21.3703 21.8953 19.7121 21.8953 17.6689V9.88097C21.8953 8.85397 21.1572 7.43117 20.3121 6.8535L13.7009 2.22141C12.4814 1.36559 10.4702 1.40838 9.30419 2.31769Z" fill="white"/>
</g>
</g>
</svg>
