<svg width="23" height="24" viewBox="0 0 23 24" fill="none" xmlns="http://www.w3.org/2000/svg">
<path d="M5.923 21.9207C5.82716 21.9207 5.72175 21.9111 5.6355 21.9015L3.55591 21.614C2.55925 21.4799 1.65841 20.5886 1.50508 19.5728L1.21758 17.474C1.12175 16.8032 1.40925 15.9311 1.88841 15.4424L6.0955 11.2353C5.41508 8.51362 6.20091 5.63862 8.20383 3.65487C11.3088 0.559453 16.3592 0.549869 19.4738 3.65487C20.9784 5.15945 21.8026 7.16237 21.8026 9.28987C21.8026 11.4174 20.9784 13.4203 19.4738 14.9249C17.4613 16.9182 14.5959 17.704 11.8934 17.014L7.67675 21.2211C7.27425 21.6428 6.5555 21.9207 5.923 21.9207ZM13.8292 2.76362C12.1522 2.76362 10.4847 3.39612 9.21008 4.6707C7.48508 6.38612 6.86216 8.89695 7.58091 11.2353C7.65758 11.494 7.5905 11.7624 7.39883 11.954L2.89466 16.4582C2.73175 16.6211 2.59758 17.0428 2.62633 17.2632L2.91383 19.362C2.97133 19.7261 3.36425 20.1382 3.72841 20.1861L5.81758 20.4736C6.04758 20.512 6.46925 20.3778 6.63216 20.2149L11.1555 15.7011C11.3472 15.5095 11.6251 15.452 11.8742 15.5286C14.1838 16.257 16.7042 15.634 18.4292 13.909C19.6559 12.6824 20.3363 11.034 20.3363 9.28987C20.3363 7.53612 19.6559 5.89737 18.4292 4.6707C17.1834 3.4057 15.5063 2.76362 13.8292 2.76362Z" fill="white"/>
<path d="M8.80724 19.8028C8.62516 19.8028 8.44307 19.7358 8.29932 19.592L6.09516 17.3878C5.81724 17.1099 5.81724 16.6499 6.09516 16.372C6.37307 16.0941 6.83307 16.0941 7.11099 16.372L9.31516 18.5762C9.59307 18.8541 9.59307 19.3141 9.31516 19.592C9.17141 19.7358 8.98932 19.8028 8.80724 19.8028Z" fill="white"/>
<path d="M13.8945 11.379C12.7062 11.379 11.7383 10.4111 11.7383 9.22278C11.7383 8.03444 12.7062 7.06653 13.8945 7.06653C15.0829 7.06653 16.0508 8.03444 16.0508 9.22278C16.0508 10.4111 15.0829 11.379 13.8945 11.379ZM13.8945 8.50403C13.5016 8.50403 13.1758 8.82986 13.1758 9.22278C13.1758 9.61569 13.5016 9.94153 13.8945 9.94153C14.2874 9.94153 14.6133 9.61569 14.6133 9.22278C14.6133 8.82986 14.2874 8.50403 13.8945 8.50403Z" fill="white"/>
</svg>
