<svg width="22" height="22" viewBox="0 0 22 22" fill="none" xmlns="http://www.w3.org/2000/svg">
<g id="leaderbord Icon">
<g id="Group">
<path id="Vector" d="M17.0261 6.15048C16.966 6.14046 16.8959 6.14046 16.8358 6.15048C15.4534 6.10039 14.3515 4.96841 14.3515 3.56596C14.3515 2.13346 15.5035 0.981445 16.936 0.981445C18.3685 0.981445 19.5205 2.14348 19.5205 3.56596C19.5105 4.96841 18.4086 6.10039 17.0261 6.15048Z" stroke="white" stroke-width="1.7" stroke-linecap="round" stroke-linejoin="round"/>
<path id="Vector_2" d="M15.9937 13.4429C17.3661 13.6733 18.8787 13.4329 19.9406 12.7217C21.3531 11.78 21.3531 10.2373 19.9406 9.29569C18.8687 8.58446 17.336 8.34403 15.9636 8.58445" stroke="white" stroke-width="1.7" stroke-linecap="round" stroke-linejoin="round"/>
<path id="Vector_3" d="M4.9735 6.15048C5.03361 6.14046 5.10373 6.14046 5.16384 6.15048C6.54625 6.10039 7.64818 4.96841 7.64818 3.56596C7.64818 2.13346 6.49616 0.981445 5.06366 0.981445C3.63116 0.981445 2.47915 2.14348 2.47915 3.56596C2.48916 4.96841 3.59109 6.10039 4.9735 6.15048Z" stroke="white" stroke-width="1.7" stroke-linecap="round" stroke-linejoin="round"/>
<path id="Vector_4" d="M6.00625 13.4429C4.63385 13.6733 3.12121 13.4329 2.05935 12.7217C0.646883 11.78 0.646883 10.2373 2.05935 9.29569C3.13122 8.58446 4.6639 8.34403 6.0363 8.58445" stroke="white" stroke-width="1.7" stroke-linecap="round" stroke-linejoin="round"/>
<path id="Vector_5" d="M11.0157 13.6334C10.9555 13.6234 10.8854 13.6234 10.8253 13.6334C9.4429 13.5833 8.34096 12.4514 8.34096 11.0489C8.34096 9.6164 9.49299 8.46436 10.9255 8.46436C12.358 8.46436 13.51 9.62642 13.51 11.0489C13.5 12.4514 12.3981 13.5933 11.0157 13.6334Z" stroke="white" stroke-width="1.7" stroke-linecap="round" stroke-linejoin="round"/>
<path id="Vector_6" d="M13.9313 16.7891C12.3386 15.7272 9.70396 15.7272 8.10116 16.7891C6.68869 17.7307 6.68869 19.2734 8.10116 20.2151C9.70396 21.2869 12.3285 21.2869 13.9313 20.2151" stroke="white" stroke-width="1.7" stroke-linecap="round" stroke-linejoin="round"/>
</g>
</g>
</svg>
