<svg width="24" height="22" viewBox="0 0 24 22" fill="none" xmlns="http://www.w3.org/2000/svg">
<g id="MapIcon">
<g id="Group">
<path id="Vector" d="M15.808 21.3996C15.3415 21.3996 14.875 21.302 14.4953 21.1175L8.79951 18.2642C8.47404 18.1015 7.83395 18.1123 7.51933 18.2968L4.95895 19.7614C3.85235 20.3906 2.7132 20.4774 1.85613 19.9675C0.988207 19.4685 0.5 18.4487 0.5 17.1685V6.62317C0.5 5.63591 1.15094 4.51846 2.00802 4.03025L6.70565 1.33969C7.49763 0.88403 8.70187 0.851482 9.51555 1.26375L15.2113 4.11704C15.5368 4.27978 16.1661 4.25808 16.4915 4.0845L19.041 2.63072C20.1476 2.00148 21.2868 1.91469 22.1439 2.42459C23.0118 2.92365 23.5 3.94346 23.5 5.22364V15.7798C23.5 16.7671 22.8491 17.8845 21.992 18.3727L17.2944 21.0633C16.8821 21.2803 16.3396 21.3996 15.808 21.3996ZM8.20282 16.5284C8.66932 16.5284 9.13583 16.626 9.51555 16.8105L15.2113 19.6638C15.5368 19.8265 16.1661 19.8048 16.4915 19.6312L21.1892 16.9406C21.5363 16.7454 21.8726 16.1595 21.8726 15.7689V5.21279C21.8726 4.52931 21.6774 4.0194 21.3193 3.82412C20.9722 3.62884 20.4297 3.70478 19.8439 4.0411L17.2944 5.49487C16.5024 5.95053 15.2981 5.98308 14.4845 5.57081L8.78866 2.71752C8.46319 2.55478 7.83395 2.57648 7.50848 2.75006L2.81085 5.44062C2.46368 5.63591 2.12736 6.22176 2.12736 6.62317V17.1793C2.12736 17.8628 2.32264 18.3727 2.66981 18.568C3.01698 18.7741 3.55943 18.6873 4.15613 18.351L6.70565 16.8973C7.12876 16.6477 7.67121 16.5284 8.20282 16.5284Z" fill="white"/>
<path id="Vector_2" d="M8.11763 17.4286C7.67282 17.4286 7.30396 17.0597 7.30396 16.6149V2.51119C7.30396 2.06638 7.67282 1.69751 8.11763 1.69751C8.56244 1.69751 8.93131 2.06638 8.93131 2.51119V16.6149C8.93131 17.0597 8.56244 17.4286 8.11763 17.4286Z" fill="white"/>
<path id="Vector_3" d="M15.8963 20.6835C15.4515 20.6835 15.0826 20.3146 15.0826 19.8698V5.35384C15.0826 4.90903 15.4515 4.54016 15.8963 4.54016C16.3411 4.54016 16.71 4.90903 16.71 5.35384V19.8698C16.71 20.3146 16.3411 20.6835 15.8963 20.6835Z" fill="white"/>
</g>
</g>
</svg>
