<svg width="26" height="26" viewBox="0 0 26 26" fill="none" xmlns="http://www.w3.org/2000/svg">
<g id="MarketIcon">
<g id="Group">
<path id="Vector" d="M1.5 1.39954H3.54729C4.81801 1.39954 5.81811 2.49377 5.71222 3.75273L4.73564 15.4716C4.57092 17.3895 6.08871 19.0367 8.01833 19.0367H20.5491C22.2434 19.0367 23.7259 17.6483 23.8553 15.9658L24.4907 7.14133C24.6319 5.18818 23.1494 3.59977 21.1845 3.59977H5.99461" stroke="white" stroke-width="1.7" stroke-miterlimit="10" stroke-linecap="round" stroke-linejoin="round"/>
<path id="Vector_2" d="M18.2665 24.9315C19.0788 24.9315 19.7373 24.2731 19.7373 23.4607C19.7373 22.6484 19.0788 21.99 18.2665 21.99C17.4542 21.99 16.7958 22.6484 16.7958 23.4607C16.7958 24.2731 17.4542 24.9315 18.2665 24.9315Z" stroke="white" stroke-width="1.7" stroke-miterlimit="10" stroke-linecap="round" stroke-linejoin="round"/>
<path id="Vector_3" d="M8.85368 24.9315C9.66596 24.9315 10.3244 24.2731 10.3244 23.4607C10.3244 22.6484 9.66596 21.99 8.85368 21.99C8.0414 21.99 7.38293 22.6484 7.38293 23.4607C7.38293 24.2731 8.0414 24.9315 8.85368 24.9315Z" stroke="white" stroke-width="1.7" stroke-miterlimit="10" stroke-linecap="round" stroke-linejoin="round"/>
<path id="Vector_4" d="M9.73621 8.45911H23.8554" stroke="white" stroke-width="1.7" stroke-miterlimit="10" stroke-linecap="round" stroke-linejoin="round"/>
</g>
</g>
</svg>
