<svg width="13" height="10" viewBox="0 0 13 10" fill="none" xmlns="http://www.w3.org/2000/svg">
<path d="M12.086 2.42799C12.0875 2.52418 12.069 2.61964 12.0317 2.7083C11.9943 2.79695 11.9389 2.87687 11.869 2.94299L6.26402 8.42799L5.21102 9.45799C5.14221 9.52674 5.06027 9.58093 4.97007 9.61736C4.87988 9.65378 4.78328 9.67168 4.68602 9.66999C4.58842 9.672 4.49143 9.65426 4.40086 9.61783C4.3103 9.5814 4.22803 9.52703 4.15902 9.45799L3.10602 8.42799L0.303022 5.68499C0.233131 5.61888 0.177749 5.53895 0.140393 5.4503C0.103036 5.36164 0.0845207 5.26618 0.086022 5.16999C0.086022 4.96799 0.158022 4.79599 0.303022 4.65499L1.35602 3.62499C1.42487 3.55594 1.50694 3.50148 1.59732 3.46488C1.6877 3.42829 1.78453 3.41029 1.88202 3.41199C2.08902 3.41199 2.26402 3.48299 2.40902 3.62499L4.68602 5.85999L9.76402 0.882988C9.90402 0.742988 10.094 0.666988 10.291 0.670988C10.497 0.670988 10.673 0.740988 10.817 0.882988L11.87 1.91299C12.012 2.04699 12.09 2.23399 12.087 2.42899L12.086 2.42799Z" fill="#C14D4D"/>
</svg>
