<svg width="100" height="100" viewBox="0 0 100 100" fill="none" xmlns="http://www.w3.org/2000/svg">
<path d="M77 33.371V36.9642C77 40.9016 73.5516 44.0388 69.8545 42.6844V42.6844C69.5912 42.5879 69.3329 42.4889 69.0795 42.3875C65.9301 41.128 61.8442 43.1869 61.8442 46.5788V60.2538C61.8442 60.2652 61.8295 60.2695 61.8233 60.26V60.26C61.8169 60.2502 61.8016 60.2552 61.8024 60.2669C61.8291 60.6914 61.8442 61.1234 61.8442 61.5591C61.8442 72.5412 52.9083 81.4812 41.9221 81.4812C30.9359 81.4812 22 72.5412 22 61.5591C22 50.577 30.9359 41.6329 41.9221 41.6329V41.6329C43.7527 41.6329 45.0848 43.2302 45.0848 45.0608V49.4428C45.0848 51.0148 43.4941 52.1238 41.9221 52.1238V52.1238C36.7213 52.1238 32.4868 56.3543 32.4868 61.5591C32.4868 66.7639 36.7213 70.9944 41.9221 70.9944C47.1229 70.9944 51.3574 66.7599 51.3574 61.5591C51.3574 61.3642 51.3534 61.1694 51.3412 60.9745V23.5865C51.3412 20.5012 53.8424 18 56.9277 18H59.4869C61.0459 18 62.324 19.2277 62.3923 20.7852V20.7852C62.4654 22.6081 63.115 24.3578 64.2477 25.791C65.5753 27.4759 67.5363 29.4328 70.2889 30.9959C72.8631 32.4512 75.2794 33.0807 76.9922 33.3776C76.9963 33.3784 77 33.3752 77 33.371V33.371Z" fill="white"/>
</svg>
