<svg width="23" height="24" viewBox="0 0 23 24" fill="none" xmlns="http://www.w3.org/2000/svg">
<path d="M11.4987 12.9561C8.46078 12.9561 5.98828 10.4836 5.98828 7.44572C5.98828 4.4078 8.46078 1.9353 11.4987 1.9353C14.5366 1.9353 17.0091 4.4078 17.0091 7.44572C17.0091 10.4836 14.5366 12.9561 11.4987 12.9561ZM11.4987 3.3728C9.2562 3.3728 7.42578 5.20322 7.42578 7.44572C7.42578 9.68822 9.2562 11.5186 11.4987 11.5186C13.7412 11.5186 15.5716 9.68822 15.5716 7.44572C15.5716 5.20322 13.7412 3.3728 11.4987 3.3728Z" fill="white"/>
<path d="M3.26953 22.5395C2.87661 22.5395 2.55078 22.2137 2.55078 21.8208C2.55078 17.7287 6.56619 14.3937 11.5016 14.3937C12.4695 14.3937 13.4183 14.5183 14.3383 14.777C14.7216 14.8825 14.942 15.2754 14.8366 15.6587C14.7312 16.042 14.3383 16.2625 13.9549 16.157C13.1691 15.9366 12.3449 15.8312 11.5016 15.8312C7.36161 15.8312 3.98828 18.5145 3.98828 21.8208C3.98828 22.2137 3.66245 22.5395 3.26953 22.5395Z" fill="white"/>
<path d="M17.2513 22.5395C16.1205 22.5395 15.0471 22.1178 14.2134 21.3607C13.878 21.0732 13.5809 20.7186 13.3509 20.3257C12.9292 19.6357 12.6992 18.8211 12.6992 17.9874C12.6992 16.7895 13.1592 15.6682 13.9834 14.8153C14.8459 13.9241 16.0055 13.4353 17.2513 13.4353C18.5546 13.4353 19.7909 13.9912 20.6342 14.9495C21.3817 15.7832 21.8034 16.8566 21.8034 17.9874C21.8034 18.3516 21.7555 18.7157 21.6596 19.0607C21.5638 19.492 21.3817 19.9424 21.1325 20.3353C20.3371 21.6961 18.8421 22.5395 17.2513 22.5395ZM17.2513 14.8728C16.3984 14.8728 15.6126 15.2082 15.0184 15.812C14.453 16.3965 14.1367 17.1632 14.1367 17.9874C14.1367 18.5528 14.2901 19.1086 14.5871 19.5878C14.7405 19.8561 14.9417 20.0957 15.1717 20.2969C15.7467 20.824 16.4846 21.1116 17.2513 21.1116C18.3342 21.1116 19.3596 20.5366 19.9155 19.607C20.0784 19.3386 20.203 19.032 20.27 18.7349C20.3371 18.4857 20.3659 18.2461 20.3659 17.997C20.3659 17.2303 20.0784 16.4924 19.5609 15.9174C18.9859 15.2466 18.1426 14.8728 17.2513 14.8728Z" fill="white"/>
<path d="M18.6857 18.687H15.8203C15.4274 18.687 15.1016 18.3612 15.1016 17.9683C15.1016 17.5753 15.4274 17.2495 15.8203 17.2495H18.6857C19.0786 17.2495 19.4045 17.5753 19.4045 17.9683C19.4045 18.3612 19.0786 18.687 18.6857 18.687Z" fill="white"/>
<path d="M17.25 20.1532C16.8571 20.1532 16.5312 19.8274 16.5312 19.4345V16.5691C16.5312 16.1762 16.8571 15.8503 17.25 15.8503C17.6429 15.8503 17.9687 16.1762 17.9687 16.5691V19.4345C17.9687 19.837 17.6429 20.1532 17.25 20.1532Z" fill="white"/>
</svg>
