<svg width="24" height="24" viewBox="0 0 24 24" fill="none" xmlns="http://www.w3.org/2000/svg">
<g id="VoteIcon">
<g id="Group">
<path id="Vector" d="M8.79073 18.0533C8.68375 18.0533 8.58747 18.0319 8.4805 17.9891C8.18096 17.8714 7.9884 17.5719 7.9884 17.251V10.8324C7.9884 10.3938 8.35212 10.03 8.79073 10.03C9.22933 10.03 9.59305 10.3938 9.59305 10.8324V15.3147L10.3633 14.5444C10.6735 14.2342 11.187 14.2342 11.4972 14.5444C11.8075 14.8547 11.8075 15.3682 11.4972 15.6784L9.35771 17.8179C9.20794 17.9677 8.99398 18.0533 8.79073 18.0533Z" fill="white"/>
<path id="Vector_2" d="M8.79014 18.0532C8.58688 18.0532 8.38363 17.9783 8.22316 17.8178L6.08363 15.6783C5.77339 15.368 5.77339 14.8546 6.08363 14.5443C6.39386 14.2341 6.90735 14.2341 7.21758 14.5443L9.35712 16.6839C9.66735 16.9941 9.66735 17.5076 9.35712 17.8178C9.19665 17.9783 8.99339 18.0532 8.79014 18.0532Z" fill="white"/>
<path id="Vector_3" d="M15.2093 23.4021H8.7907C2.98186 23.4021 0.5 20.9202 0.5 15.1114V8.6928C0.5 2.88396 2.98186 0.4021 8.7907 0.4021H14.1395C14.5781 0.4021 14.9419 0.765821 14.9419 1.20443C14.9419 1.64303 14.5781 2.00675 14.1395 2.00675H8.7907C3.85907 2.00675 2.10465 3.76117 2.10465 8.6928V15.1114C2.10465 20.043 3.85907 21.7974 8.7907 21.7974H15.2093C20.1409 21.7974 21.8953 20.043 21.8953 15.1114V9.76256C21.8953 9.32396 22.2591 8.96024 22.6977 8.96024C23.1363 8.96024 23.5 9.32396 23.5 9.76256V15.1114C23.5 20.9202 21.0181 23.4021 15.2093 23.4021Z" fill="white"/>
<path id="Vector_4" d="M22.6976 10.5649H18.4186C14.7599 10.5649 13.3372 9.14211 13.3372 5.4835V1.20443C13.3372 0.883503 13.5297 0.583968 13.8293 0.466293C14.1288 0.337921 14.4711 0.412805 14.7065 0.637456L23.2646 9.1956C23.4893 9.42025 23.5641 9.77328 23.4358 10.0728C23.3074 10.3724 23.0186 10.5649 22.6976 10.5649ZM14.9418 3.14071V5.4835C14.9418 8.2435 15.6586 8.96025 18.4186 8.96025H20.7613L14.9418 3.14071Z" fill="white"/>
</g>
</g>
</svg>
