<svg width="100" height="100" viewBox="0 0 100 100" fill="none" xmlns="http://www.w3.org/2000/svg">
<path d="M88.8194 36.8587C88.3311 32.1456 87.2804 26.9355 83.4132 24.1975C80.418 22.0743 76.4809 21.9958 72.8056 22.0001C65.0363 22.0045 57.2626 22.0132 49.4933 22.0176C42.0205 22.0263 34.5476 22.0307 27.0748 22.0394C23.9531 22.0438 20.9186 21.7995 18.0193 23.1511C15.5298 24.3108 13.5809 26.517 12.4081 28.9716C10.7819 32.3854 10.4419 36.2526 10.2457 40.0283C9.88379 46.9038 9.92303 53.7967 10.3547 60.6679C10.6729 65.6818 11.4795 71.2232 15.3554 74.419C18.791 77.2485 23.6392 77.3881 28.095 77.3924C42.2384 77.4055 56.3863 77.4185 70.5341 77.4273C72.3478 77.4316 74.24 77.3968 76.0886 77.1963C79.7247 76.8039 83.1908 75.7618 85.5277 73.0674C87.8864 70.3512 88.4924 66.5712 88.8499 62.9917C89.7219 54.3069 89.7132 45.5392 88.8194 36.8587ZM45.8145 59.2895C43.8145 60.4446 41.3142 59.0013 41.3142 56.6917V42.7348C41.3142 40.4254 43.8141 38.982 45.8141 40.1367L57.8993 47.1139C59.8991 48.2685 59.8993 51.155 57.8997 52.3099L45.8145 59.2895Z" fill="white"/>
</svg>
